# xmcd
#
# Track frame offsets:
# 150
# 17075
# 52140
# 69573
# 94070
# 106940
# 124188
# 139690
# 156408
# 179705
# 199538
# 224220
# 240503
# 271650
# 288905
# 306523
# 324118
#
# Disc length: 4540 seconds
#
# Revision: 0
# Processed by: cddbd v1.4PL0 Copyright (c) Steve Scherf et al.
# Submitted via: MacMP3 Pro 5.0 (http://mp3.act2.co.jp/)
#
DISCID=0111ba11
DTITLE=Curtis Mayfield - very best
DYEAR=1900
DGENRE=
TTITLE0=Move On Up
TTITLE1=(Don't Worry)If There's A Hell Bellow We're All Gonna Go
TTITLE2=Superfly
TTITLE3=Freddie's Dead
TTITLE4=If Were Only A Child Again
TTITLE5=Sweet Exorcist
TTITLE6=Ain't No Love Lost
TTITLE7=Hard Times
TTITLE8=So In Love
TTITLE9=In Your Arms Again(Shake It)
TTITLE10=Do Do Wap Is Strong In Here
TTITLE11=You Are,You Are
TTITLE12=You're So Good To Me
TTITLE13=Tripping Out
TTITLE14=She Don't Let Nobody(But Me)
TTITLE15=We've Only Just Begun
TTITLE16=Peaple Get Ready
EXTD=
EXTT0=
EXTT1=
EXTT2=
EXTT3=
EXTT4=
EXTT5=
EXTT6=
EXTT7=
EXTT8=
EXTT9=
EXTT10=
EXTT11=
EXTT12=
EXTT13=
EXTT14=
EXTT15=
EXTT16=
PLAYORDER=
